<svg width="154" height="30" viewBox="0 0 154 30" fill="none" xmlns="http://www.w3.org/2000/svg">
<g filter="url(#filter0_i_2_14)">
<path d="M21.352 6.504C21.352 7.76267 21.128 8.89333 20.68 9.896C20.2533 10.8773 19.6987 11.7413 19.016 12.488C18.3547 13.2347 17.6613 13.896 16.936 14.472C16.0827 15.1333 15.016 15.464 13.736 15.464C13.3307 15.464 13.0427 15.4533 12.872 15.432C12.7013 15.3893 12.584 15.304 12.52 15.176C12.456 15.048 12.3707 14.824 12.264 14.504C12.2427 14.44 12.232 14.344 12.232 14.216C12.232 14.0453 12.264 13.9173 12.328 13.832C12.4133 13.7467 12.4987 13.7893 12.584 13.96C12.6907 14.2373 12.8187 14.4293 12.968 14.536C13.1173 14.6213 13.3733 14.664 13.736 14.664C14.2907 14.664 14.7387 14.5573 15.08 14.344C15.4427 14.1093 15.7947 13.864 16.136 13.608C16.8187 13.096 17.4587 12.5093 18.056 11.848C18.6747 11.1653 19.176 10.376 19.56 9.48C19.944 8.584 20.136 7.56 20.136 6.408C20.136 5.59733 19.9333 4.91467 19.528 4.36C19.1227 3.80533 18.5787 3.368 17.896 3.048C17.2133 2.70667 16.4667 2.46133 15.656 2.312C14.8453 2.16267 14.0347 2.088 13.224 2.088C12.8827 2.088 12.5307 2.10933 12.168 2.152C11.8267 2.19467 11.496 2.23733 11.176 2.28C10.088 2.36533 9.20267 2.48267 8.52 2.632C7.85867 2.78133 7.29333 3.016 6.824 3.336C6.35467 3.63467 5.88533 4.072 5.416 4.648C5.16 4.94667 5 5.39467 4.936 5.992C4.872 6.58933 4.84 7.13333 4.84 7.624C4.84 8.54133 4.936 9.23467 5.128 9.704C5.32 10.1733 5.81067 10.408 6.6 10.408C6.89867 10.408 7.272 10.312 7.72 10.12C8.168 9.90667 8.60533 9.65067 9.032 9.352C9.48 9.032 9.81067 8.70133 10.024 8.36C10.1733 8.12533 10.344 8.008 10.536 8.008C10.6853 8.008 10.76 8.11467 10.76 8.328C10.76 8.49867 10.6853 8.76533 10.536 9.128C10.472 9.27733 10.28 9.46933 9.96 9.704C9.66133 9.93867 9.29867 10.1733 8.872 10.408C8.44533 10.6213 8.01867 10.8027 7.592 10.952C7.18667 11.1013 6.856 11.176 6.6 11.176C5.93867 11.176 5.352 10.984 4.84 10.6C4.328 10.216 3.92267 9.704 3.624 9.064C3.34667 8.424 3.208 7.73067 3.208 6.984C3.208 6.344 3.4 5.81067 3.784 5.384C4.168 4.936 4.49867 4.54133 4.776 4.2C5.56533 3.26133 6.504 2.51467 7.592 1.96C8.70133 1.40533 10.1307 1.064 11.88 0.935999C12.2427 0.893333 12.5947 0.861333 12.936 0.839998C13.2773 0.818665 13.6187 0.807999 13.96 0.807999C15.2187 0.807999 16.4027 1.032 17.512 1.48C18.6427 1.90667 19.56 2.54667 20.264 3.4C20.9893 4.232 21.352 5.26667 21.352 6.504ZM15.368 2.952C15.3893 2.952 15.4107 2.952 15.432 2.952C15.4533 2.93067 15.4747 2.92 15.496 2.92C15.6027 2.92 15.656 2.97333 15.656 3.08C15.656 3.29333 15.5067 3.45333 15.208 3.56C14.504 3.73067 14.0027 4.01867 13.704 4.424C13.4267 4.808 13.1707 5.33067 12.936 5.992C12.616 6.93067 12.392 7.80533 12.264 8.616C12.136 9.40533 12.0507 10.216 12.008 11.048C11.9653 11.88 11.9013 12.8293 11.816 13.896C11.7307 15.0907 11.5387 16.2747 11.24 17.448C10.9627 18.6213 10.5573 19.688 10.024 20.648C9.49067 21.5867 8.808 22.344 7.976 22.92C7.144 23.496 6.13067 23.784 4.936 23.784C4.232 23.784 3.57067 23.528 2.952 23.016C2.33333 22.504 1.832 21.8533 1.448 21.064C1.08533 20.296 0.904 19.5387 0.904 18.792C0.904 18.1733 1.032 17.6507 1.288 17.224C1.544 16.776 1.75733 16.3493 1.928 15.944C2.29067 15.368 2.696 14.8133 3.144 14.28C3.61333 13.7253 4.15733 13.2773 4.776 12.936C5.39467 12.5733 6.10933 12.392 6.92 12.392C7.92267 12.392 8.59467 12.6587 8.936 13.192C9.27733 13.7253 9.448 14.4613 9.448 15.4C9.448 16.5093 9.13867 17.3627 8.52 17.96C7.90133 18.5573 7.02667 18.856 5.896 18.856C5.55467 18.856 5.26667 18.7493 5.032 18.536C4.79733 18.3013 4.68 18.0027 4.68 17.64C4.68 17.3413 4.75467 17.1387 4.904 17.032C5.07467 16.9253 5.24533 16.8293 5.416 16.744C5.45867 16.7227 5.512 16.712 5.576 16.712C5.68267 16.712 5.77867 16.7653 5.864 16.872C5.94933 16.9573 5.992 17.0533 5.992 17.16C5.992 17.3093 5.91733 17.3947 5.768 17.416C5.704 17.4373 5.62933 17.4587 5.544 17.48C5.45867 17.48 5.416 17.5333 5.416 17.64C5.416 17.9387 5.576 18.088 5.896 18.088C7.752 18.088 8.68 17.192 8.68 15.4C8.68 14.7387 8.57333 14.2053 8.36 13.8C8.14667 13.3733 7.66667 13.16 6.92 13.16C6.216 13.16 5.59733 13.32 5.064 13.64C4.53067 13.96 4.072 14.3653 3.688 14.856C3.304 15.3467 2.96267 15.848 2.664 16.36C2.45067 16.7013 2.23733 17.0533 2.024 17.416C1.81067 17.7787 1.704 18.2373 1.704 18.792C1.704 19.4107 1.8 20.0507 1.992 20.712C2.20533 21.352 2.51467 21.896 2.92 22.344C3.32533 22.792 3.80533 23.016 4.36 23.016C5.46933 23.016 6.38667 22.76 7.112 22.248C7.85867 21.736 8.44533 21.0533 8.872 20.2C9.29867 19.3467 9.61867 18.3867 9.832 17.32C10.0667 16.232 10.2267 15.1333 10.312 14.024C10.44 12.424 10.6427 10.9947 10.92 9.736C11.2187 8.47733 11.6133 7.13333 12.104 5.704C12.3813 4.89333 12.776 4.28533 13.288 3.88C13.8213 3.47467 14.5147 3.16533 15.368 2.952ZM27.2775 17.096C27.0002 17.5653 26.6482 18.0773 26.2215 18.632C25.7948 19.1653 25.3468 19.624 24.8775 20.008C24.4295 20.392 24.0028 20.584 23.5975 20.584C22.9362 20.584 22.4135 20.552 22.0295 20.488C21.6668 20.4027 21.3682 20.2853 21.1335 20.136C20.7282 19.8587 20.3975 19.496 20.1415 19.048C19.8855 18.6 19.7362 18.1413 19.6935 17.672C19.6722 17.544 19.6615 17.416 19.6615 17.288C19.6615 17.16 19.6615 17.0427 19.6615 16.936C19.6615 15.6773 19.9068 14.568 20.3975 13.608C20.8882 12.648 21.5815 12.072 22.4775 11.88C22.7548 11.8373 22.9682 11.9547 23.1175 12.232C23.2668 12.488 23.3415 12.84 23.3415 13.288C23.3415 13.9707 23.1602 14.7067 22.7975 15.496C22.6482 15.816 22.4882 16.1253 22.3175 16.424C22.1682 16.7013 22.0402 16.9253 21.9335 17.096C21.6562 17.5013 21.4428 17.7787 21.2935 17.928C21.1655 18.056 21.1015 18.184 21.1015 18.312C21.1015 18.6533 21.3148 18.984 21.7415 19.304C22.1682 19.624 22.8295 19.784 23.7255 19.784C24.0668 19.784 24.4188 19.6347 24.7815 19.336C25.1442 19.0373 25.4962 18.664 25.8375 18.216C26.2002 17.768 26.5202 17.32 26.7975 16.872C26.9255 16.6587 27.0428 16.552 27.1495 16.552C27.2775 16.552 27.3415 16.648 27.3415 16.84C27.3415 16.9253 27.3202 17.0107 27.2775 17.096ZM22.4775 13.064C22.3922 12.936 22.2108 12.968 21.9335 13.16C21.6775 13.3307 21.4428 13.736 21.2295 14.376C21.0802 14.8453 21.0055 15.3893 21.0055 16.008C21.0055 16.1787 21.0055 16.3493 21.0055 16.52C21.0268 16.6907 21.0482 16.8613 21.0695 17.032C21.4322 16.4133 21.6882 15.9547 21.8375 15.656C22.0082 15.336 22.1362 15.0053 22.2215 14.664C22.2642 14.4933 22.3282 14.28 22.4135 14.024C22.5202 13.768 22.5735 13.544 22.5735 13.352C22.5735 13.224 22.5415 13.128 22.4775 13.064ZM32.866 19.272C32.9513 19.1867 33.0687 19.144 33.218 19.144C33.3673 19.144 33.442 19.208 33.442 19.336C33.442 19.4853 33.2713 19.72 32.93 20.04C32.5887 20.36 32.2153 20.616 31.81 20.808C31.4047 21 31.0207 21.1387 30.658 21.224C30.4873 21.2453 30.2527 21.1813 29.954 21.032C29.6767 20.904 29.506 20.7653 29.442 20.616C29.3567 20.424 29.2927 20.2107 29.25 19.976C29.2073 19.72 29.186 19.4533 29.186 19.176C29.186 18.5147 29.2607 17.832 29.41 17.128C29.5593 16.424 29.698 15.816 29.826 15.304C29.57 15.3893 29.282 15.432 28.962 15.432C28.6633 15.432 28.3967 15.4533 28.162 15.496C28.0127 15.7093 27.8847 15.9547 27.778 16.232C27.6713 16.488 27.522 16.776 27.33 17.096C26.9887 17.6507 26.6047 18.2053 26.178 18.76C25.7727 19.2933 25.3567 19.7307 24.93 20.072C24.5033 20.4133 24.0873 20.584 23.682 20.584C23.4047 20.584 23.266 20.5093 23.266 20.36C23.266 20.2107 23.4473 20.072 23.81 19.944C24.322 19.752 24.8447 19.3467 25.378 18.728C25.9113 18.1093 26.3913 17.4693 26.818 16.808C27.0313 16.488 27.17 16.2 27.234 15.944C27.298 15.6667 27.33 15.4533 27.33 15.304C27.33 15.304 27.234 15.1973 27.042 14.984C26.8713 14.7493 26.786 14.5253 26.786 14.312C26.786 13.8427 26.9353 13.416 27.234 13.032C27.554 12.648 27.8847 12.5093 28.226 12.616C28.4607 12.68 28.61 12.7867 28.674 12.936C28.7593 13.0853 28.802 13.2453 28.802 13.416C28.802 13.608 28.77 13.8107 28.706 14.024C28.642 14.216 28.578 14.3867 28.514 14.536C28.578 14.6213 28.7167 14.664 28.93 14.664C29.25 14.664 29.602 14.6 29.986 14.472C30.2633 14.0667 30.53 13.7467 30.786 13.512C31.042 13.2773 31.2767 13.1813 31.49 13.224C31.6393 13.2453 31.778 13.2987 31.906 13.384C32.034 13.4693 32.098 13.6293 32.098 13.864C32.098 14.056 32.002 14.344 31.81 14.728C31.49 15.304 31.1913 15.9333 30.914 16.616C30.6367 17.2773 30.4233 17.8853 30.274 18.44C30.1247 18.9733 30.0607 19.3467 30.082 19.56C30.1247 19.8373 30.1993 20.0187 30.306 20.104C30.434 20.1893 30.5727 20.232 30.722 20.232C30.8287 20.232 30.9353 20.2213 31.042 20.2C31.17 20.1573 31.2873 20.1253 31.394 20.104C31.714 19.9973 31.9807 19.88 32.194 19.752C32.4073 19.624 32.6313 19.464 32.866 19.272ZM28.098 13.864C28.098 13.672 28.034 13.5333 27.906 13.448C27.8847 13.4267 27.8527 13.416 27.81 13.416C27.7033 13.416 27.6073 13.4907 27.522 13.64C27.4367 13.768 27.394 13.896 27.394 14.024C27.394 14.1307 27.4047 14.2587 27.426 14.408C27.4687 14.536 27.5433 14.568 27.65 14.504C27.7567 14.44 27.8527 14.3547 27.938 14.248C28.0447 14.1413 28.098 14.0133 28.098 13.864ZM40.9613 18.824C40.6839 19.1013 40.4386 19.3787 40.2253 19.656C40.0119 19.9333 39.5426 20.2533 38.8173 20.616C38.7319 20.744 38.5399 20.936 38.2413 21.192C37.9639 21.448 37.4093 21.5973 36.5773 21.64C36.0226 21.6613 35.5746 21.5227 35.2333 21.224C34.9133 20.9467 34.6679 20.6053 34.4973 20.2C34.3266 19.7947 34.1773 19.4213 34.0493 19.08C34.0279 19.1013 33.9319 19.1867 33.7613 19.336C33.5906 19.4853 33.4199 19.6347 33.2492 19.784C33.0572 19.9333 32.9399 20.0293 32.8972 20.072C32.8759 20.0933 32.8332 20.104 32.7692 20.104C32.6626 20.104 32.5772 20.0507 32.5132 19.944C32.4279 19.816 32.4279 19.7093 32.5132 19.624C32.9186 19.2187 33.2279 18.9093 33.4413 18.696C33.6546 18.4613 33.8466 18.2373 34.0173 18.024C34.1879 17.8107 34.3906 17.544 34.6253 17.224C34.9879 16.6693 35.3719 16.1787 35.7773 15.752C36.2039 15.304 36.4706 14.9733 36.5773 14.76C36.5986 14.7387 36.6093 14.696 36.6093 14.632C36.6093 14.568 36.5773 14.5147 36.5133 14.472C36.4706 14.4293 36.4386 14.376 36.4173 14.312C36.3319 13.9707 36.2893 13.6507 36.2893 13.352C36.2893 12.8827 36.4706 12.328 36.8333 11.688C36.9826 11.5813 37.1853 11.496 37.4413 11.432C37.6973 11.3467 37.8999 11.336 38.0493 11.4C38.2199 11.4853 38.3266 11.5813 38.3693 11.688C38.4333 11.7947 38.4866 11.9333 38.5293 12.104C38.5293 12.1253 38.5293 12.1467 38.5293 12.168C38.5506 12.1893 38.5613 12.2213 38.5613 12.264C38.5613 12.392 38.5399 12.5307 38.4973 12.68C38.4546 12.8293 38.4013 12.9893 38.3373 13.16C38.3373 13.2453 38.2306 13.4053 38.0173 13.64C37.8253 13.8747 37.7613 14.024 37.8253 14.088C37.9533 14.3653 38.1666 14.728 38.4653 15.176C38.8279 15.688 39.0733 16.1573 39.2013 16.584C39.3506 17.0107 39.4253 17.3947 39.4253 17.736C39.4253 18.1413 39.3613 18.4933 39.2333 18.792C39.1266 19.0907 39.0413 19.3467 38.9773 19.56C39.1693 19.5813 39.3933 19.4853 39.6493 19.272C39.9053 19.0373 40.1506 18.7813 40.3853 18.504C40.6413 18.2053 40.8333 17.992 40.9613 17.864C41.0893 17.736 41.1853 17.672 41.2493 17.672C41.3559 17.672 41.3559 17.832 41.2493 18.152C41.1639 18.472 41.0679 18.696 40.9613 18.824ZM37.8573 12.68C37.8573 12.5947 37.8466 12.4987 37.8253 12.392C37.8039 12.2853 37.7399 12.2213 37.6333 12.2H37.6013C37.4946 12.2 37.4093 12.2533 37.3453 12.36C37.2813 12.4453 37.2279 12.5307 37.1853 12.616C37.1213 12.7867 37.0573 12.936 36.9933 13.064C36.9506 13.1707 36.9719 13.2773 37.0573 13.384C37.1426 13.4267 37.2919 13.3413 37.5052 13.128C37.7399 12.8933 37.8573 12.744 37.8573 12.68ZM37.9213 17.8C37.9213 17.48 37.8573 17.1387 37.7293 16.776C37.6226 16.392 37.4946 16.0507 37.3453 15.752C37.2173 15.4533 37.1213 15.2613 37.0573 15.176C37.0573 15.176 36.9293 15.336 36.6733 15.656C36.4173 15.9547 36.1399 16.2853 35.8413 16.648C35.6493 16.8613 35.4573 17.1387 35.2653 17.48C35.0733 17.8213 34.9559 18.12 34.9133 18.376C34.9133 18.376 35.0093 18.504 35.2013 18.76C35.3933 18.9947 35.6279 19.2187 35.9053 19.432C36.2039 19.6453 36.4919 19.72 36.7693 19.656C37.1959 19.5493 37.4946 19.304 37.6653 18.92C37.8359 18.5147 37.9213 18.1413 37.9213 17.8ZM36.8333 20.296H36.5453C36.4599 20.296 36.3639 20.296 36.2573 20.296C36.1506 20.2747 36.0439 20.2533 35.9373 20.232C35.8306 20.1893 35.6706 20.104 35.4573 19.976C35.2439 19.848 35.1373 19.784 35.1373 19.784C35.1373 19.784 35.1266 19.8053 35.1053 19.848C35.1053 19.8907 35.1053 19.944 35.1053 20.008C35.1053 20.0933 35.1159 20.1893 35.1373 20.296C35.1799 20.4027 35.2546 20.5093 35.3613 20.616C35.5319 20.744 35.6813 20.8507 35.8093 20.936C35.9373 21 36.1079 21 36.3213 20.936C36.4706 20.8933 36.5879 20.776 36.6733 20.584C36.7799 20.392 36.8333 20.296 36.8333 20.296ZM47.5185 14.984C47.5185 15.432 47.4225 16.0187 47.2305 16.744C47.0385 17.4693 46.7825 18.152 46.4625 18.792C46.1638 19.4533 45.8225 19.944 45.4385 20.264C45.0758 20.5627 44.7238 20.776 44.3825 20.904C44.0412 21.0107 43.7638 21.1173 43.5505 21.224C43.4652 21.2453 43.3692 21.2667 43.2625 21.288C43.1772 21.3307 43.0812 21.352 42.9745 21.352C42.5478 21.352 42.2172 21.2347 41.9825 21C41.8972 20.9147 41.7585 20.8293 41.5665 20.744C41.3958 20.6587 41.2358 20.5093 41.0865 20.296C40.9372 20.0827 40.8625 19.7307 40.8625 19.24C40.8625 18.728 40.9265 18.2373 41.0545 17.768C40.6705 17.32 40.4785 16.8293 40.4785 16.296C40.4785 15.976 40.5532 15.6667 40.7025 15.368C41.1078 14.6 41.6198 14.0027 42.2385 13.576C42.8572 13.1493 43.4438 12.8507 43.9985 12.68C44.5745 12.5093 44.9692 12.424 45.1825 12.424C45.9718 12.424 46.5585 12.68 46.9425 13.192C47.3265 13.704 47.5185 14.3013 47.5185 14.984ZM46.2065 15.144C46.2065 14.6533 46.0358 14.248 45.6945 13.928C45.3745 13.608 44.9692 13.448 44.4785 13.448C44.0732 13.448 43.6572 13.576 43.2305 13.832C42.8252 14.0667 42.4732 14.3653 42.1745 14.728C41.8758 15.0907 41.6838 15.4427 41.5985 15.784C41.5772 15.912 41.5558 16.0293 41.5345 16.136C41.5345 16.2427 41.5345 16.3493 41.5345 16.456C41.7692 15.944 42.0145 15.5173 42.2705 15.176C42.5478 14.8347 42.7505 14.6213 42.8785 14.536C42.9852 14.4507 43.1238 14.408 43.2945 14.408C43.5292 14.408 43.6465 14.472 43.6465 14.6C43.6465 14.6853 43.5292 14.8453 43.2945 15.08C43.0812 15.2933 42.8358 15.5813 42.5585 15.944C42.2812 16.2853 42.0465 16.712 41.8545 17.224C42.0252 17.4373 42.2492 17.5973 42.5265 17.704C42.8252 17.7893 43.1132 17.832 43.3905 17.832C43.6892 17.832 43.9665 17.7787 44.2225 17.672C44.4998 17.544 44.6812 17.3733 44.7665 17.16C44.7878 17.096 44.7985 17.0427 44.7985 17C44.8198 16.936 44.8305 16.8827 44.8305 16.84C44.8305 16.6267 44.7345 16.4987 44.5425 16.456C44.3718 16.392 44.2012 16.3707 44.0305 16.392H43.9665C43.7318 16.392 43.6145 16.3387 43.6145 16.232C43.6145 16.168 43.6358 16.104 43.6785 16.04C43.7425 15.976 43.7958 15.9227 43.8385 15.88C43.9665 15.752 44.1052 15.688 44.2545 15.688C44.4678 15.688 44.7025 15.8267 44.9585 16.104C45.1932 16.424 45.3105 16.7333 45.3105 17.032C45.3105 17.416 45.1185 17.7147 44.7345 17.928C44.3718 18.1413 43.9665 18.2907 43.5185 18.376C43.0705 18.4613 42.7292 18.504 42.4945 18.504C42.1532 18.504 41.8758 18.4293 41.6625 18.28C41.6412 18.3227 41.6305 18.4187 41.6305 18.568C41.6305 19.1653 41.7905 19.5707 42.1105 19.784C42.4305 19.976 42.6972 20.1253 42.9105 20.232C43.0385 20.2747 43.1452 20.296 43.2305 20.296C43.5292 20.296 43.8385 20.168 44.1585 19.912C44.4998 19.656 44.7985 19.304 45.0545 18.856C45.2465 18.5147 45.4278 18.1093 45.5985 17.64C45.7692 17.1707 45.9078 16.712 46.0145 16.264C46.1425 15.7947 46.2065 15.4213 46.2065 15.144ZM54.4045 15.176C54.4045 15.6667 54.3618 16.0293 54.2765 16.264C54.2125 16.4987 54.1165 16.6907 53.9885 16.84C53.8818 16.9893 53.7645 17.16 53.6365 17.352C53.5085 17.544 53.4018 17.832 53.3165 18.216C53.2525 18.5787 53.2205 19.112 53.2205 19.816C53.2205 20.0933 53.3272 20.3173 53.5405 20.488C53.7538 20.6587 53.9992 20.744 54.2765 20.744C54.4045 20.744 54.4685 20.7867 54.4685 20.872C54.4685 20.9787 54.3832 21.1067 54.2125 21.256C54.0632 21.4267 53.9245 21.512 53.7965 21.512C53.3272 21.512 52.9858 21.3307 52.7725 20.968C52.5592 20.584 52.4525 20.1787 52.4525 19.752C52.4525 19.048 52.4738 18.4933 52.5165 18.088C52.5592 17.6613 52.6018 17.2667 52.6445 16.904C52.6872 16.52 52.6978 16.0507 52.6765 15.496C52.6552 15.112 52.6018 14.8133 52.5165 14.6C52.4312 14.3653 52.2072 14.248 51.8445 14.248C51.6525 14.248 51.5138 14.28 51.4285 14.344C51.3645 14.408 51.2792 14.5147 51.1725 14.664C50.9378 15.0053 50.7352 15.4853 50.5645 16.104C50.4152 16.7013 50.2872 17.3413 50.1805 18.024C50.0952 18.6853 50.0098 19.2827 49.9245 19.816C49.8605 20.328 49.7965 20.6693 49.7325 20.84C49.6685 20.9893 49.5832 21.096 49.4765 21.16C49.3912 21.224 49.2952 21.256 49.1885 21.256C49.1032 21.256 49.0178 21.2347 48.9325 21.192C48.8685 21.1707 48.8152 21.1493 48.7725 21.128C48.6658 21.064 48.6125 20.9573 48.6125 20.808C48.6125 20.6587 48.6445 20.488 48.7085 20.296C48.7938 20.0827 48.8578 19.8907 48.9005 19.72C48.9432 19.5493 49.0072 19.2507 49.0925 18.824C49.1992 18.376 49.3058 17.9173 49.4125 17.448C49.5192 16.9573 49.6045 16.5413 49.6685 16.2C49.7538 15.8373 49.7965 15.656 49.7965 15.656C49.6898 15.656 49.5832 15.6667 49.4765 15.688C49.3698 15.688 49.2632 15.688 49.1565 15.688C48.8365 15.688 48.6765 15.56 48.6765 15.304C48.6765 15.1333 48.7405 14.8773 48.8685 14.536C48.9965 14.1947 49.2312 13.7467 49.5725 13.192C49.6792 13.0213 49.8925 12.808 50.2125 12.552C50.5325 12.296 50.7992 12.1893 51.0125 12.232C51.0978 12.1893 51.1725 12.168 51.2365 12.168C51.3005 12.168 51.3538 12.168 51.3965 12.168C51.6312 12.168 51.7592 12.2533 51.7805 12.424C51.8232 12.5733 51.8338 12.7333 51.8125 12.904C51.7912 13.0533 51.8018 13.1173 51.8445 13.096C52.1432 12.968 52.4418 12.904 52.7405 12.904C53.1885 12.904 53.5725 13.0853 53.8925 13.448C54.2338 13.7893 54.4045 14.3653 54.4045 15.176ZM67.322 18.504C67.386 18.44 67.4713 18.408 67.578 18.408C67.7273 18.408 67.802 18.4827 67.802 18.632C67.802 18.7173 67.7487 18.8453 67.642 19.016C67.5567 19.1867 67.3647 19.3893 67.066 19.624C66.7673 19.88 66.458 20.1147 66.138 20.328C65.8393 20.5413 65.4233 20.648 64.89 20.648C64.314 20.648 63.8553 20.5413 63.514 20.328C63.194 20.1147 62.9593 19.88 62.81 19.624C62.682 19.3467 62.5967 19.1333 62.554 18.984C62.298 19.176 62.0313 19.432 61.754 19.752C61.498 20.0507 61.1247 20.328 60.634 20.584C60.1433 20.8187 59.4393 20.936 58.522 20.936C58.01 20.936 57.5407 20.8187 57.114 20.584C56.7087 20.328 56.506 19.784 56.506 18.952C56.506 18.7173 56.5167 18.472 56.538 18.216C56.5807 17.9387 56.6447 17.64 56.73 17.32C56.986 16.3173 57.2847 15.528 57.626 14.952C57.9673 14.376 58.4793 13.9493 59.162 13.672C59.5887 13.5013 60.1113 13.3413 60.73 13.192C61.3487 13.0427 61.8927 12.9147 62.362 12.808C62.5113 12.7653 62.6393 12.6267 62.746 12.392C62.874 12.136 63.0127 11.9013 63.162 11.688C63.2473 11.5813 63.3433 11.496 63.45 11.432C63.5567 11.3467 63.674 11.304 63.802 11.304C63.9087 11.304 64.0473 11.3573 64.218 11.464C64.3673 11.5707 64.4633 11.7733 64.506 12.072C64.57 12.3707 64.602 12.648 64.602 12.904C64.5807 13.032 64.5273 13.192 64.442 13.384C64.378 13.5547 64.3247 13.7467 64.282 13.96C64.2393 14.2373 64.1327 14.632 63.962 15.144C63.7913 15.656 63.706 16.0827 63.706 16.424C63.706 16.7227 63.6847 17.096 63.642 17.544C63.5993 17.9707 63.5993 18.2693 63.642 18.44C63.8767 18.952 64.2073 19.2933 64.634 19.464C65.0607 19.6133 65.434 19.656 65.754 19.592C65.9887 19.5493 66.2553 19.4107 66.554 19.176C66.8527 18.9413 67.1087 18.7173 67.322 18.504ZM62.138 14.856C62.0953 14.6853 61.9887 14.504 61.818 14.312C61.6687 14.12 61.4767 14.024 61.242 14.024C61.1993 14.024 61.114 14.0453 60.986 14.088C60.6233 14.216 60.2393 14.4613 59.834 14.824C59.4287 15.1653 59.0767 15.6133 58.778 16.168C58.4793 16.7227 58.3087 17.3733 58.266 18.12C58.266 18.3333 58.33 18.6107 58.458 18.952C58.6073 19.2933 58.7993 19.5813 59.034 19.816C59.2687 20.0507 59.5033 20.1147 59.738 20.008C60.25 19.7947 60.6767 19.496 61.018 19.112C61.3807 18.7067 61.6793 18.216 61.914 17.64C62.0207 17.3627 62.0953 17.0747 62.138 16.776C62.202 16.456 62.234 16.1573 62.234 15.88C62.234 15.624 62.2233 15.4107 62.202 15.24C62.1807 15.048 62.1593 14.92 62.138 14.856ZM76.1848 18.12C76.0141 18.504 75.6408 18.9627 75.0648 19.496C74.5101 20.0293 73.8488 20.4987 73.0808 20.904C72.3341 21.288 71.5768 21.48 70.8088 21.48C69.6994 21.48 68.9528 21.16 68.5688 20.52C68.1848 19.8587 67.9928 18.9733 67.9928 17.864C67.9928 17.1173 68.0568 16.2 68.1848 15.112C68.3128 14.024 68.5048 12.8507 68.7608 11.592C69.0168 10.3333 69.3368 9.064 69.7208 7.784C70.1048 6.568 70.5208 5.384 70.9688 4.232C71.4168 3.08 72.0888 2.07733 72.9848 1.224C73.1341 0.989333 73.3261 0.872 73.5608 0.872C73.7528 0.872 73.9234 0.957333 74.0728 1.128C74.2221 1.27733 74.2861 1.45867 74.2648 1.672C74.2648 1.672 74.2541 1.93867 74.2328 2.472C74.2328 3.00533 74.2008 3.656 74.1368 4.424C74.0728 5.17067 73.9768 5.88533 73.8488 6.568C73.6568 7.72 73.3048 8.936 72.7928 10.216C72.3021 11.496 71.7794 12.6587 71.2248 13.704C70.7768 14.5787 70.4141 15.208 70.1368 15.592C69.8808 15.976 69.6781 16.2533 69.5288 16.424C69.4008 16.5947 69.3048 16.8187 69.2408 17.096C69.2194 17.2453 69.1981 17.416 69.1768 17.608C69.1768 17.7787 69.1768 17.96 69.1768 18.152C69.1768 18.536 69.1981 18.9093 69.2408 19.272C69.3048 19.6133 69.3794 19.8373 69.4648 19.944C69.6994 20.1787 69.9554 20.3493 70.2328 20.456C70.5101 20.5627 70.7874 20.616 71.0648 20.616C71.2994 20.616 71.5128 20.584 71.7048 20.52C72.4301 20.3067 73.1661 19.9547 73.9128 19.464C74.6808 18.9733 75.2248 18.4933 75.5448 18.024C75.6941 17.8107 75.8114 17.672 75.8968 17.608C76.0034 17.5227 76.0888 17.48 76.1528 17.48C76.2594 17.48 76.3128 17.5547 76.3128 17.704C76.3128 17.7467 76.3021 17.8107 76.2808 17.896C76.2594 17.96 76.2274 18.0347 76.1848 18.12ZM73.2728 3.016C73.0594 2.97333 72.7181 3.44267 72.2488 4.424C71.8008 5.40533 71.3314 6.73867 70.8408 8.424C70.6914 8.936 70.5208 9.58667 70.3288 10.376C70.1581 11.1653 69.9874 11.9867 69.8168 12.84C69.6461 13.672 69.5181 14.4293 69.4328 15.112C70.1154 13.7253 70.7341 12.4773 71.2888 11.368C71.8434 10.2587 72.2701 9.224 72.5688 8.264C72.8461 7.496 73.0488 6.67467 73.1768 5.8C73.3261 4.92533 73.4008 4.232 73.4008 3.72C73.4008 3.31467 73.3581 3.08 73.2728 3.016ZM102.722 1.192C102.573 1.36267 102.349 1.56533 102.05 1.8C101.752 2.03467 101.421 2.152 101.058 2.152C100.866 2.152 100.674 2.12 100.482 2.056C100.312 1.992 100.162 1.93867 100.034 1.896C99.6929 1.78933 99.3516 1.69333 99.0103 1.608C98.6689 1.52267 98.2849 1.45867 97.8583 1.416C97.1329 1.30933 96.5036 1.18133 95.9703 1.032C95.4583 0.861333 94.7649 0.775999 93.8903 0.775999C92.8663 0.775999 91.9383 0.903999 91.1063 1.16C90.2956 1.416 89.6449 1.832 89.1543 2.408C88.6849 2.984 88.4503 3.76267 88.4503 4.744C88.4503 5.27733 88.5036 5.81067 88.6103 6.344C88.7169 6.856 89.0263 7.112 89.5383 7.112C89.9863 7.112 90.3169 7.112 90.5303 7.112C90.7436 7.112 90.9143 7.048 91.0423 6.92C91.1703 6.792 91.3196 6.54667 91.4903 6.184C91.5756 6.01333 91.6396 5.81067 91.6823 5.576C91.7463 5.34133 91.7783 5.11733 91.7783 4.904C91.7783 4.60533 91.7249 4.31733 91.6183 4.04C91.5756 3.912 91.5543 3.80533 91.5543 3.72C91.5543 3.54933 91.5863 3.4 91.6503 3.272C91.7356 3.144 91.8209 3.08 91.9063 3.08C91.9916 3.08 92.0663 3.15467 92.1303 3.304C92.2796 3.64533 92.3756 3.912 92.4183 4.104C92.4609 4.296 92.4823 4.47733 92.4823 4.648C92.5036 4.79733 92.5143 5.02133 92.5143 5.32C92.5143 6.17333 92.2476 6.792 91.7143 7.176C91.2023 7.56 90.4769 7.752 89.5383 7.752C88.8129 7.752 88.1943 7.464 87.6823 6.888C87.1703 6.29067 86.9143 5.59733 86.9143 4.808C86.9143 3.656 87.2343 2.73867 87.8743 2.056C88.5356 1.352 89.3889 0.850666 90.4343 0.551998C91.5009 0.253332 92.6209 0.103998 93.7943 0.103998C94.7116 0.103998 95.4689 0.199998 96.0662 0.391998C96.6849 0.562665 97.3783 0.701332 98.1463 0.807999C98.5943 0.850666 98.9676 0.872 99.2663 0.872C99.5649 0.850665 99.9063 0.903999 100.29 1.032C100.418 1.07467 100.6 1.17067 100.834 1.32C101.069 1.46933 101.261 1.544 101.41 1.544C101.624 1.544 101.773 1.46933 101.858 1.32C101.965 1.14933 102.061 1.02133 102.146 0.935999C102.317 0.743999 102.477 0.647999 102.626 0.647999C102.776 0.647999 102.85 0.722666 102.85 0.872C102.85 0.978666 102.808 1.08533 102.722 1.192ZM98.1783 17.224C98.0503 17.9493 97.9543 18.5253 97.8903 18.952C97.8263 19.3787 97.7623 19.7413 97.6983 20.04C97.6343 20.3387 97.5383 20.6587 97.4103 21C97.3036 21.3627 97.1543 21.8213 96.9623 22.376C96.7276 23.0373 96.4609 23.6347 96.1623 24.168C95.8636 24.7227 95.4903 25.2133 95.0423 25.64C94.5303 26.152 93.8369 26.728 92.9623 27.368C92.1089 28.008 91.1809 28.5627 90.1783 29.032C89.1756 29.5013 88.1729 29.736 87.1703 29.736C86.5089 29.736 85.9756 29.6293 85.5703 29.416C85.1649 29.224 84.7169 29.064 84.2263 28.936C82.9889 28.6373 82.1036 28.04 81.5703 27.144C81.0369 26.2693 80.7703 25.0533 80.7703 23.496C80.7703 22.5147 80.8876 21.6933 81.1223 21.032C81.3783 20.3707 81.7196 19.7947 82.1463 19.304C82.5729 18.792 83.0529 18.312 83.5863 17.864C84.0769 17.4373 84.5783 17.032 85.0903 16.648C85.6023 16.2427 86.2956 16.04 87.1703 16.04C87.8529 16.04 88.3969 16.264 88.8023 16.712C89.2076 17.1387 89.4956 17.6827 89.6663 18.344C89.8369 18.984 89.9223 19.6347 89.9223 20.296C89.9223 21.1493 89.7409 21.7893 89.3783 22.216C89.0369 22.6427 88.4716 22.856 87.6823 22.856C86.8929 22.856 86.4129 22.504 86.2423 21.8C86.1783 21.608 86.2103 21.448 86.3383 21.32C86.4663 21.2133 86.6049 21.16 86.7543 21.16C87.0103 21.16 87.1703 21.2987 87.2343 21.576V21.672C87.2343 21.7573 87.2236 21.832 87.2023 21.896C87.2023 21.9813 87.2449 22.024 87.3303 22.024C87.8209 22.024 88.1943 21.8533 88.4503 21.512C88.7276 21.192 88.8663 20.7867 88.8663 20.296C88.8663 19.6133 88.7596 19.1227 88.5463 18.824C88.3543 18.5253 87.8956 18.376 87.1703 18.376C86.7009 18.376 86.3383 18.4187 86.0823 18.504C85.8476 18.568 85.6343 18.6853 85.4423 18.856C85.2716 19.0053 85.0476 19.1973 84.7703 19.432C84.3436 19.7947 83.8956 20.1253 83.4263 20.424C82.9783 20.7227 82.5943 21.096 82.2743 21.544C81.9756 22.0133 81.8263 22.664 81.8263 23.496C81.8263 24.7333 82.0183 25.704 82.4023 26.408C82.8076 27.112 83.5009 27.6133 84.4823 27.912C84.9303 28.04 85.3356 28.2 85.6983 28.392C86.0609 28.584 86.5516 28.68 87.1703 28.68C88.0876 28.68 88.9943 28.456 89.8903 28.008C90.8076 27.5813 91.6503 27.0693 92.4183 26.472C93.1863 25.8747 93.8049 25.352 94.2743 24.904C94.7009 24.4987 95.0316 24.0613 95.2663 23.592C95.5223 23.1227 95.7569 22.6 95.9703 22.024C96.1623 21.4693 96.3009 21 96.3863 20.616C96.4929 20.2107 96.5676 19.8267 96.6103 19.464C96.6743 19.08 96.7383 18.6533 96.8022 18.184C96.8663 17.7147 96.9516 17.128 97.0583 16.424L96.6423 13.576L94.6903 4.936C94.7329 4.27467 94.7756 3.688 94.8183 3.176C94.8823 2.664 95.1276 2.25867 95.5543 1.96C95.7249 1.85333 95.9383 1.88533 96.1943 2.056C96.4716 2.20533 96.7169 2.41867 96.9303 2.696C97.1436 2.952 97.2503 3.176 97.2503 3.368C97.2503 3.432 97.2076 3.50667 97.1223 3.592C96.8023 3.80533 96.6529 4.09333 96.6743 4.456C96.6956 4.79733 96.6849 5.21333 96.6423 5.704L97.8263 13.544L98.1783 17.224ZM107.581 14.984C107.581 15.432 107.485 16.0187 107.293 16.744C107.101 17.4693 106.845 18.152 106.525 18.792C106.226 19.4533 105.885 19.944 105.501 20.264C105.138 20.5627 104.786 20.776 104.445 20.904C104.104 21.0107 103.826 21.1173 103.613 21.224C103.528 21.2453 103.432 21.2667 103.325 21.288C103.24 21.3307 103.144 21.352 103.037 21.352C102.61 21.352 102.28 21.2347 102.045 21C101.96 20.9147 101.821 20.8293 101.629 20.744C101.458 20.6587 101.298 20.5093 101.149 20.296C101 20.0827 100.925 19.7307 100.925 19.24C100.925 18.728 100.989 18.2373 101.117 17.768C100.733 17.32 100.541 16.8293 100.541 16.296C100.541 15.976 100.616 15.6667 100.765 15.368C101.17 14.6 101.682 14.0027 102.301 13.576C102.92 13.1493 103.506 12.8507 104.061 12.68C104.637 12.5093 105.032 12.424 105.245 12.424C106.034 12.424 106.621 12.68 107.005 13.192C107.389 13.704 107.581 14.3013 107.581 14.984ZM106.269 15.144C106.269 14.6533 106.098 14.248 105.757 13.928C105.437 13.608 105.032 13.448 104.541 13.448C104.136 13.448 103.72 13.576 103.293 13.832C102.888 14.0667 102.536 14.3653 102.237 14.728C101.938 15.0907 101.746 15.4427 101.661 15.784C101.64 15.912 101.618 16.0293 101.597 16.136C101.597 16.2427 101.597 16.3493 101.597 16.456C101.832 15.944 102.077 15.5173 102.333 15.176C102.61 14.8347 102.813 14.6213 102.941 14.536C103.048 14.4507 103.186 14.408 103.357 14.408C103.592 14.408 103.709 14.472 103.709 14.6C103.709 14.6853 103.592 14.8453 103.357 15.08C103.144 15.2933 102.898 15.5813 102.621 15.944C102.344 16.2853 102.109 16.712 101.917 17.224C102.088 17.4373 102.312 17.5973 102.589 17.704C102.888 17.7893 103.176 17.832 103.453 17.832C103.752 17.832 104.029 17.7787 104.285 17.672C104.562 17.544 104.744 17.3733 104.829 17.16C104.85 17.096 104.861 17.0427 104.861 17C104.882 16.936 104.893 16.8827 104.893 16.84C104.893 16.6267 104.797 16.4987 104.605 16.456C104.434 16.392 104.264 16.3707 104.093 16.392H104.029C103.794 16.392 103.677 16.3387 103.677 16.232C103.677 16.168 103.698 16.104 103.741 16.04C103.805 15.976 103.858 15.9227 103.901 15.88C104.029 15.752 104.168 15.688 104.317 15.688C104.53 15.688 104.765 15.8267 105.021 16.104C105.256 16.424 105.373 16.7333 105.373 17.032C105.373 17.416 105.181 17.7147 104.797 17.928C104.434 18.1413 104.029 18.2907 103.581 18.376C103.133 18.4613 102.792 18.504 102.557 18.504C102.216 18.504 101.938 18.4293 101.725 18.28C101.704 18.3227 101.693 18.4187 101.693 18.568C101.693 19.1653 101.853 19.5707 102.173 19.784C102.493 19.976 102.76 20.1253 102.973 20.232C103.101 20.2747 103.208 20.296 103.293 20.296C103.592 20.296 103.901 20.168 104.221 19.912C104.562 19.656 104.861 19.304 105.117 18.856C105.309 18.5147 105.49 18.1093 105.661 17.64C105.832 17.1707 105.97 16.712 106.077 16.264C106.205 15.7947 106.269 15.4213 106.269 15.144ZM117.827 18.984C117.272 19.6453 116.792 20.104 116.387 20.36C115.982 20.616 115.63 20.744 115.331 20.744C114.947 20.744 114.616 20.5947 114.339 20.296C114.083 19.976 113.859 19.6347 113.667 19.272C113.496 18.9093 113.358 18.6533 113.251 18.504C112.846 18.8667 112.366 19.2507 111.811 19.656C111.256 20.04 110.798 20.232 110.435 20.232C109.752 20.232 109.219 20.0613 108.835 19.72C108.451 19.3573 108.259 18.8347 108.259 18.152C108.259 17.448 108.344 16.616 108.515 15.656C108.707 14.696 108.942 13.7467 109.219 12.808C109.496 11.848 109.763 11.048 110.019 10.408C110.083 10.216 110.211 10.056 110.403 9.928C110.616 9.8 110.83 9.736 111.043 9.736C111.299 9.736 111.47 9.8 111.555 9.928C111.64 10.056 111.683 10.2053 111.683 10.376C111.683 10.5893 111.64 10.8027 111.555 11.016C111.491 11.208 111.459 11.304 111.459 11.304C111.203 12.0293 110.904 12.7867 110.563 13.576C110.243 14.3653 109.944 15.2613 109.667 16.264C109.646 16.392 109.614 16.5733 109.571 16.808C109.55 17.0427 109.539 17.288 109.539 17.544C109.539 17.9067 109.582 18.248 109.667 18.568C109.774 18.8667 109.966 19.016 110.243 19.016C110.478 19.016 110.787 18.8773 111.171 18.6C111.576 18.3227 111.982 17.9387 112.387 17.448C112.792 16.9573 113.112 16.392 113.347 15.752C113.56 15.176 113.752 14.5467 113.923 13.864C114.094 13.1813 114.243 12.5413 114.371 11.944C114.52 11.3253 114.659 10.8453 114.787 10.504C114.851 10.3547 114.947 10.28 115.075 10.28C115.246 10.28 115.395 10.344 115.523 10.472C115.672 10.6 115.726 10.7173 115.683 10.824C115.598 11.0373 115.48 11.3893 115.331 11.88C115.182 12.3707 115.032 12.9147 114.883 13.512C114.734 14.1093 114.595 14.696 114.467 15.272C114.339 15.8267 114.232 16.296 114.147 16.68C114.062 17.064 114.019 17.2773 114.019 17.32C114.019 17.64 114.051 17.928 114.115 18.184C114.179 18.44 114.286 18.7173 114.435 19.016C114.542 19.1867 114.67 19.3787 114.819 19.592C114.99 19.784 115.16 19.88 115.331 19.88C115.736 19.88 116.12 19.7413 116.483 19.464C116.867 19.1653 117.155 18.8773 117.347 18.6C117.496 18.3653 117.635 18.248 117.763 18.248C117.891 18.248 117.955 18.3653 117.955 18.6C117.955 18.7707 117.912 18.8987 117.827 18.984ZM124.679 19.272C124.764 19.1867 124.881 19.144 125.031 19.144C125.18 19.144 125.255 19.208 125.255 19.336C125.255 19.4853 125.084 19.72 124.743 20.04C124.401 20.36 124.028 20.616 123.623 20.808C123.217 21 122.833 21.1387 122.471 21.224C122.3 21.2453 122.065 21.1813 121.766 21.032C121.489 20.904 121.319 20.7653 121.255 20.616C121.169 20.424 121.105 20.2107 121.062 19.976C121.02 19.72 120.999 19.4533 120.999 19.176C120.999 18.5147 121.073 17.832 121.223 17.128C121.372 16.424 121.511 15.816 121.639 15.304C121.383 15.3893 121.095 15.432 120.775 15.432C120.476 15.432 120.209 15.4533 119.975 15.496C119.825 15.7093 119.697 15.9547 119.591 16.232C119.484 16.488 119.335 16.776 119.143 17.096C118.801 17.6507 118.417 18.2053 117.991 18.76C117.585 19.2933 117.169 19.7307 116.742 20.072C116.316 20.4133 115.9 20.584 115.494 20.584C115.217 20.584 115.078 20.5093 115.078 20.36C115.078 20.2107 115.26 20.072 115.622 19.944C116.134 19.752 116.657 19.3467 117.191 18.728C117.724 18.1093 118.204 17.4693 118.631 16.808C118.844 16.488 118.983 16.2 119.047 15.944C119.111 15.6667 119.143 15.4533 119.143 15.304C119.143 15.304 119.047 15.1973 118.855 14.984C118.684 14.7493 118.599 14.5253 118.599 14.312C118.599 13.8427 118.748 13.416 119.047 13.032C119.367 12.648 119.697 12.5093 120.039 12.616C120.273 12.68 120.423 12.7867 120.487 12.936C120.572 13.0853 120.615 13.2453 120.615 13.416C120.615 13.608 120.583 13.8107 120.519 14.024C120.455 14.216 120.391 14.3867 120.327 14.536C120.391 14.6213 120.529 14.664 120.743 14.664C121.063 14.664 121.415 14.6 121.799 14.472C122.076 14.0667 122.343 13.7467 122.599 13.512C122.855 13.2773 123.089 13.1813 123.303 13.224C123.452 13.2453 123.591 13.2987 123.719 13.384C123.847 13.4693 123.911 13.6293 123.911 13.864C123.911 14.056 123.815 14.344 123.623 14.728C123.303 15.304 123.004 15.9333 122.727 16.616C122.449 17.2773 122.236 17.8853 122.087 18.44C121.937 18.9733 121.873 19.3467 121.895 19.56C121.937 19.8373 122.012 20.0187 122.119 20.104C122.247 20.1893 122.385 20.232 122.535 20.232C122.641 20.232 122.748 20.2213 122.855 20.2C122.983 20.1573 123.1 20.1253 123.207 20.104C123.527 19.9973 123.793 19.88 124.007 19.752C124.22 19.624 124.444 19.464 124.679 19.272ZM119.911 13.864C119.911 13.672 119.847 13.5333 119.719 13.448C119.697 13.4267 119.665 13.416 119.623 13.416C119.516 13.416 119.42 13.4907 119.335 13.64C119.249 13.768 119.207 13.896 119.207 14.024C119.207 14.1307 119.217 14.2587 119.239 14.408C119.281 14.536 119.356 14.568 119.463 14.504C119.569 14.44 119.665 14.3547 119.751 14.248C119.857 14.1413 119.911 14.0133 119.911 13.864ZM131.686 15.176C131.686 15.6667 131.643 16.0293 131.558 16.264C131.494 16.4987 131.398 16.6907 131.27 16.84C131.163 16.9893 131.046 17.16 130.918 17.352C130.79 17.544 130.683 17.832 130.598 18.216C130.534 18.5787 130.502 19.112 130.502 19.816C130.502 20.0933 130.608 20.3173 130.822 20.488C131.035 20.6587 131.28 20.744 131.558 20.744C131.686 20.744 131.75 20.7867 131.75 20.872C131.75 20.9787 131.664 21.1067 131.494 21.256C131.344 21.4267 131.206 21.512 131.078 21.512C130.608 21.512 130.267 21.3307 130.054 20.968C129.84 20.584 129.734 20.1787 129.734 19.752C129.734 19.048 129.755 18.4933 129.798 18.088C129.84 17.6613 129.883 17.2667 129.926 16.904C129.968 16.52 129.979 16.0507 129.958 15.496C129.936 15.112 129.883 14.8133 129.798 14.6C129.712 14.3653 129.488 14.248 129.126 14.248C128.934 14.248 128.795 14.28 128.71 14.344C128.646 14.408 128.56 14.5147 128.454 14.664C128.219 15.0053 128.016 15.4853 127.846 16.104C127.696 16.7013 127.568 17.3413 127.462 18.024C127.376 18.6853 127.291 19.2827 127.206 19.816C127.142 20.328 127.078 20.6693 127.014 20.84C126.95 20.9893 126.864 21.096 126.758 21.16C126.672 21.224 126.576 21.256 126.47 21.256C126.384 21.256 126.299 21.2347 126.214 21.192C126.15 21.1707 126.096 21.1493 126.054 21.128C125.947 21.064 125.894 20.9573 125.894 20.808C125.894 20.6587 125.926 20.488 125.99 20.296C126.075 20.0827 126.139 19.8907 126.182 19.72C126.224 19.5493 126.288 19.2507 126.374 18.824C126.48 18.376 126.587 17.9173 126.694 17.448C126.8 16.9573 126.886 16.5413 126.95 16.2C127.035 15.8373 127.078 15.656 127.078 15.656C126.971 15.656 126.864 15.6667 126.758 15.688C126.651 15.688 126.544 15.688 126.438 15.688C126.118 15.688 125.958 15.56 125.958 15.304C125.958 15.1333 126.022 14.8773 126.15 14.536C126.278 14.1947 126.512 13.7467 126.854 13.192C126.96 13.0213 127.174 12.808 127.494 12.552C127.814 12.296 128.08 12.1893 128.294 12.232C128.379 12.1893 128.454 12.168 128.518 12.168C128.582 12.168 128.635 12.168 128.678 12.168C128.912 12.168 129.04 12.2533 129.062 12.424C129.104 12.5733 129.115 12.7333 129.094 12.904C129.072 13.0533 129.083 13.1173 129.126 13.096C129.424 12.968 129.723 12.904 130.022 12.904C130.47 12.904 130.854 13.0853 131.174 13.448C131.515 13.7893 131.686 14.3653 131.686 15.176ZM144.603 18.504C144.667 18.44 144.753 18.408 144.859 18.408C145.009 18.408 145.083 18.4827 145.083 18.632C145.083 18.7173 145.03 18.8453 144.923 19.016C144.838 19.1867 144.646 19.3893 144.347 19.624C144.049 19.88 143.739 20.1147 143.419 20.328C143.121 20.5413 142.705 20.648 142.171 20.648C141.595 20.648 141.137 20.5413 140.795 20.328C140.475 20.1147 140.241 19.88 140.091 19.624C139.963 19.3467 139.878 19.1333 139.835 18.984C139.579 19.176 139.313 19.432 139.035 19.752C138.779 20.0507 138.406 20.328 137.915 20.584C137.425 20.8187 136.721 20.936 135.803 20.936C135.291 20.936 134.822 20.8187 134.395 20.584C133.99 20.328 133.787 19.784 133.787 18.952C133.787 18.7173 133.798 18.472 133.819 18.216C133.862 17.9387 133.926 17.64 134.011 17.32C134.267 16.3173 134.566 15.528 134.907 14.952C135.249 14.376 135.761 13.9493 136.443 13.672C136.87 13.5013 137.393 13.3413 138.011 13.192C138.63 13.0427 139.174 12.9147 139.643 12.808C139.793 12.7653 139.921 12.6267 140.027 12.392C140.155 12.136 140.294 11.9013 140.443 11.688C140.529 11.5813 140.625 11.496 140.731 11.432C140.838 11.3467 140.955 11.304 141.083 11.304C141.19 11.304 141.329 11.3573 141.499 11.464C141.649 11.5707 141.745 11.7733 141.787 12.072C141.851 12.3707 141.883 12.648 141.883 12.904C141.862 13.032 141.809 13.192 141.723 13.384C141.659 13.5547 141.606 13.7467 141.563 13.96C141.521 14.2373 141.414 14.632 141.243 15.144C141.073 15.656 140.987 16.0827 140.987 16.424C140.987 16.7227 140.966 17.096 140.923 17.544C140.881 17.9707 140.881 18.2693 140.923 18.44C141.158 18.952 141.489 19.2933 141.915 19.464C142.342 19.6133 142.715 19.656 143.035 19.592C143.27 19.5493 143.537 19.4107 143.835 19.176C144.134 18.9413 144.39 18.7173 144.603 18.504ZM139.419 14.856C139.377 14.6853 139.27 14.504 139.099 14.312C138.95 14.12 138.758 14.024 138.523 14.024C138.481 14.024 138.395 14.0453 138.267 14.088C137.905 14.216 137.521 14.4613 137.115 14.824C136.71 15.1653 136.358 15.6133 136.059 16.168C135.761 16.7227 135.59 17.3733 135.547 18.12C135.547 18.3333 135.611 18.6107 135.739 18.952C135.889 19.2933 136.081 19.5813 136.315 19.816C136.55 20.0507 136.785 20.1147 137.019 20.008C137.531 19.7947 137.958 19.496 138.299 19.112C138.662 18.7067 138.961 18.216 139.195 17.64C139.302 17.3627 139.377 17.0747 139.419 16.776C139.483 16.456 139.515 16.1573 139.515 15.88C139.515 15.624 139.505 15.4107 139.483 15.24C139.462 15.048 139.441 14.92 139.419 14.856ZM153.466 18.12C153.295 18.504 152.922 18.9627 152.346 19.496C151.791 20.0293 151.13 20.4987 150.362 20.904C149.615 21.288 148.858 21.48 148.09 21.48C146.981 21.48 146.234 21.16 145.85 20.52C145.466 19.8587 145.274 18.9733 145.274 17.864C145.274 17.1173 145.338 16.2 145.466 15.112C145.594 14.024 145.786 12.8507 146.042 11.592C146.298 10.3333 146.618 9.064 147.002 7.784C147.386 6.568 147.802 5.384 148.25 4.232C148.698 3.08 149.37 2.07733 150.266 1.224C150.415 0.989333 150.607 0.872 150.842 0.872C151.034 0.872 151.205 0.957333 151.354 1.128C151.503 1.27733 151.567 1.45867 151.546 1.672C151.546 1.672 151.535 1.93867 151.514 2.472C151.514 3.00533 151.482 3.656 151.418 4.424C151.354 5.17067 151.258 5.88533 151.13 6.568C150.938 7.72 150.586 8.936 150.074 10.216C149.583 11.496 149.061 12.6587 148.506 13.704C148.058 14.5787 147.695 15.208 147.418 15.592C147.162 15.976 146.959 16.2533 146.81 16.424C146.682 16.5947 146.586 16.8187 146.522 17.096C146.501 17.2453 146.479 17.416 146.458 17.608C146.458 17.7787 146.458 17.96 146.458 18.152C146.458 18.536 146.479 18.9093 146.522 19.272C146.586 19.6133 146.661 19.8373 146.746 19.944C146.981 20.1787 147.237 20.3493 147.514 20.456C147.791 20.5627 148.069 20.616 148.346 20.616C148.581 20.616 148.794 20.584 148.986 20.52C149.711 20.3067 150.447 19.9547 151.194 19.464C151.962 18.9733 152.506 18.4933 152.826 18.024C152.975 17.8107 153.093 17.672 153.178 17.608C153.285 17.5227 153.37 17.48 153.434 17.48C153.541 17.48 153.594 17.5547 153.594 17.704C153.594 17.7467 153.583 17.8107 153.562 17.896C153.541 17.96 153.509 18.0347 153.466 18.12ZM150.554 3.016C150.341 2.97333 149.999 3.44267 149.53 4.424C149.082 5.40533 148.613 6.73867 148.122 8.424C147.973 8.936 147.802 9.58667 147.61 10.376C147.439 11.1653 147.269 11.9867 147.098 12.84C146.927 13.672 146.799 14.4293 146.714 15.112C147.397 13.7253 148.015 12.4773 148.57 11.368C149.125 10.2587 149.551 9.224 149.85 8.264C150.127 7.496 150.33 6.67467 150.458 5.8C150.607 4.92533 150.682 4.232 150.682 3.72C150.682 3.31467 150.639 3.08 150.554 3.016Z" fill="white"/>
</g>
<defs>
<filter id="filter0_i_2_14" x="0.903999" y="0.103996" width="152.69" height="33.632" filterUnits="userSpaceOnUse" color-interpolation-filters="sRGB">
<feFlood flood-opacity="0" result="BackgroundImageFix"/>
<feBlend mode="normal" in="SourceGraphic" in2="BackgroundImageFix" result="shape"/>
<feColorMatrix in="SourceAlpha" type="matrix" values="0 0 0 0 0 0 0 0 0 0 0 0 0 0 0 0 0 0 127 0" result="hardAlpha"/>
<feOffset dy="4"/>
<feGaussianBlur stdDeviation="2"/>
<feComposite in2="hardAlpha" operator="arithmetic" k2="-1" k3="1"/>
<feColorMatrix type="matrix" values="0 0 0 0 0 0 0 0 0 0 0 0 0 0 0 0 0 0 0.25 0"/>
<feBlend mode="normal" in2="shape" result="effect1_innerShadow_2_14"/>
</filter>
</defs>
</svg>
